<?xml version="1.0" encoding="UTF-8" standalone="no"?>
<!-- Created with Inkscape (http://www.inkscape.org/) -->

<svg
   xmlns:dc="http://purl.org/dc/elements/1.1/"
   xmlns:cc="http://creativecommons.org/ns#"
   xmlns:rdf="http://www.w3.org/1999/02/22-rdf-syntax-ns#"
   xmlns:svg="http://www.w3.org/2000/svg"
   xmlns="http://www.w3.org/2000/svg"
   xmlns:xlink="http://www.w3.org/1999/xlink"
   xmlns:sodipodi="http://sodipodi.sourceforge.net/DTD/sodipodi-0.dtd"
   xmlns:inkscape="http://www.inkscape.org/namespaces/inkscape"
   width="210mm"
   height="297mm"
   viewBox="0 0 210 297"
   version="1.1"
   id="svg8"
   inkscape:version="0.92.3 (2405546, 2018-03-11)"
   sodipodi:docname="hydian way 1.svg">
  <defs
     id="defs2" />
  <sodipodi:namedview
     id="base"
     pagecolor="#ffffff"
     bordercolor="#666666"
     borderopacity="1.0"
     inkscape:pageopacity="0.0"
     inkscape:pageshadow="2"
     inkscape:zoom="0.7"
     inkscape:cx="347.11828"
     inkscape:cy="637.00834"
     inkscape:document-units="mm"
     inkscape:current-layer="layer1"
     showgrid="false"
     inkscape:window-width="1213"
     inkscape:window-height="665"
     inkscape:window-x="67"
     inkscape:window-y="27"
     inkscape:window-maximized="1" />
  <metadata
     id="metadata5">
    <rdf:RDF>
      <cc:Work
         rdf:about="">
        <dc:format>image/svg+xml</dc:format>
        <dc:type
           rdf:resource="http://purl.org/dc/dcmitype/StillImage" />
        <dc:title></dc:title>
      </cc:Work>
    </rdf:RDF>
  </metadata>
  <g
     inkscape:label="Layer 1"
     inkscape:groupmode="layer"
     id="layer1">
    <text
       xml:space="preserve"
       style="font-style:normal;font-variant:normal;font-weight:normal;font-stretch:normal;font-size:10.58333302px;line-height:1.25;font-family:Zapfino;-inkscape-font-specification:Zapfino;letter-spacing:0px;word-spacing:0px;fill:#000000;fill-opacity:1;stroke:none;stroke-width:0.26458332"
       id="text828"><textPath
         xlink:href="#path843"
         id="textPath845"
         style="font-size:16.93333244px;fill:#bbc040;fill-opacity:0.18823529;stroke-width:0.26458332">          Hydian Way</textPath></text>
    <path
       style="fill:none;stroke:#000000;stroke-width:0.26458332px;stroke-linecap:butt;stroke-linejoin:miter;stroke-opacity:1;opacity:0"
       d="m 34.2105,219.49184 c 0.178179,-0.71272 0.390462,-1.41777 0.534538,-2.13816 0.12043,-0.60215 0,-1.49089 0,-2.13816 0,-1.42543 0,-2.85087 0,-4.27631 0,-0.27952 -0.07028,-1.9976 0,-2.13816 0.112691,-0.22538 0.421849,-0.30915 0.53454,-0.53454 0.184611,-0.36922 -0.187634,-2.48506 0,-2.67269 0.125992,-0.12599 0.408546,0.12599 0.534538,0 0.125992,-0.12599 -0.05635,-0.3655 0,-0.53454 0.125992,-0.37798 0.408548,-0.6911 0.53454,-1.06908 0.189336,-0.56801 -0.189336,-1.57015 0,-2.13815 0.07969,-0.23906 0.421847,-0.30916 0.534538,-0.53454 0.170069,-0.34014 -0.154046,-2.21056 0,-2.6727 0.125992,-0.37797 0.408548,-0.6911 0.53454,-1.06908 0.05635,-0.16903 -0.05635,-0.3655 0,-0.53454 0.125992,-0.37797 0.437907,-0.68255 0.534538,-1.06907 0.08643,-0.34572 0,-0.71272 0,-1.06908 0,-0.35636 0,-0.71272 0,-1.06908 0,-0.17818 -0.05635,-0.3655 0,-0.53454 0.125992,-0.37797 0.313534,-0.73757 0.53454,-1.06908 0.139774,-0.20966 0.454854,-0.29548 0.534538,-0.53454 0.112691,-0.33807 -0.08643,-0.72335 0,-1.06907 0.09663,-0.38653 0.437909,-0.68256 0.53454,-1.06908 0.08643,-0.34572 -0.112691,-0.73101 0,-1.06908 0.07969,-0.23905 0.454854,-0.29549 0.534538,-0.53454 0.112691,-0.33807 -0.112691,-0.73101 0,-1.06908 0.159369,-0.4781 0.843698,-0.61831 1.069078,-1.06907 0.07968,-0.15937 -0.07968,-0.37518 0,-0.53455 0.112692,-0.22538 0.421849,-0.30915 0.534541,-0.53453 0.07968,-0.15937 -0.125992,-0.40855 0,-0.53454 0.125991,-0.126 0.408545,0.12599 0.534537,0 0.08296,-0.083 -0.06933,-1.39562 0,-1.60362 0.125992,-0.37798 0.408549,-0.6911 0.534541,-1.06908 0.05635,-0.16903 -0.07969,-0.37517 0,-0.53454 0.112688,-0.22538 0.421846,-0.30916 0.534537,-0.53454 0.07968,-0.15936 0,-0.35635 0,-0.53454 0.178181,-0.35635 0.313534,-0.73757 0.534541,-1.06907 0.139774,-0.20967 0.421846,-0.30916 0.534537,-0.53454 0.07968,-0.15937 -0.05635,-0.3655 0,-0.53454 0.645954,-1.93786 0.253619,-0.38043 1.069078,-1.60362 0.221007,-0.33151 0.313534,-0.73757 0.534541,-1.06908 0.139774,-0.20966 0.394763,-0.32487 0.534537,-0.53454 0.221007,-0.3315 0.35636,-0.71271 0.534541,-1.06907 0.178178,-0.35636 0.408546,-0.69111 0.534538,-1.06908 0.05635,-0.16904 -0.07968,-0.37517 0,-0.53454 0.112691,-0.22538 0.356359,-0.35636 0.53454,-0.53454 0.41752,-0.41752 1.296114,-1.14236 1.603616,-1.60362 1.177679,-0.26919 0.282556,-1.09965 0.53454,-1.60361 0.112691,-0.22539 0.394764,-0.32488 0.534538,-0.53454 0.221006,-0.33151 0.313536,-0.73758 0.53454,-1.06908 0.139774,-0.20967 0.394764,-0.32488 0.534538,-0.53454 0.221006,-0.33151 0.313536,-0.73757 0.53454,-1.06908 0.524372,-0.78656 1.613784,-1.3516 2.138156,-2.13815 0.221004,-0.33151 0.313534,-0.73758 0.534538,-1.06908 0.419327,-0.62899 1.150046,-0.99886 1.603618,-1.60362 0.239054,-0.31874 0.313534,-0.73757 0.534538,-1.06908 0.279553,-0.41933 0.789527,-0.64975 1.069078,-1.06908 0.221006,-0.3315 0.252815,-0.78735 0.53454,-1.06907 1.29829,-1.29829 0.784929,0.15895 1.603619,-1.06908 0.442007,-0.66302 0.59097,-1.50068 1.069078,-2.13816 0.604761,-0.80635 1.533392,-1.33181 2.138156,-2.13816 0.239051,-0.31873 0.295484,-0.75033 0.534538,-1.06907 0.302381,-0.40318 0.766696,-0.66591 1.069078,-1.06908 0.239053,-0.31874 0.252812,-0.78735 0.53454,-1.06908 0.281726,-0.28172 0.78735,-0.25281 1.069078,-0.53454 1.298289,-1.29829 -0.158956,-0.78493 1.069078,-1.60362 0.331507,-0.221 0.78735,-0.25281 1.069078,-0.53454 0.125992,-0.12599 -0.05635,-0.3655 0,-0.53453 0.125992,-0.37798 0.313534,-0.73757 0.534538,-1.06908 0.411183,-0.61678 1.192435,-0.98684 1.603618,-1.60362 0.221004,-0.33151 0.252812,-0.78735 0.534538,-1.06908 0.125992,-0.12599 0.408548,0.12599 0.53454,0 0.281726,-0.28172 0.313534,-0.73757 0.534538,-1.06908 0.279551,-0.41932 0.843698,-0.61831 1.069078,-1.06907 0.07968,-0.15937 -0.125992,-0.40855 0,-0.53454 1.105982,-1.10598 -0.04323,1.69008 1.069078,-0.53454 0.07968,-0.15937 -0.07968,-0.37517 0,-0.53454 0.07096,-0.14192 1.461693,-1.53265 1.603618,-1.60362 0.15937,-0.0797 0.408546,0.12599 0.534538,0 0.125992,-0.12599 -0.07968,-0.37517 0,-0.53454 0.05116,-0.10232 2.035837,-2.08699 2.138156,-2.13815 0.159369,-0.0797 0.408549,0.12599 0.534541,0 0.125992,-0.12599 -0.125992,-0.40855 0,-0.53454 0.281725,-0.28173 0.737571,-0.31354 1.069078,-0.53454 0.209663,-0.13978 0.356359,-0.35636 0.534537,-0.53454 0.178181,-0.17818 0.421849,-0.30916 0.534541,-0.53454 0.07968,-0.15937 -0.125992,-0.40855 0,-0.53454 0.125992,-0.12599 0.408545,0.12599 0.534537,0 0.125992,-0.12599 -0.07968,-0.37517 0,-0.53454 0.07096,-0.14192 1.461694,-1.53265 1.603619,-1.60361 0.159369,-0.0797 0.375171,0.0797 0.534538,0 0.450765,-0.22538 0.618315,-0.8437 1.069078,-1.06908 0.159369,-0.0797 0.375171,0.0797 0.53454,0 0.526002,-0.263 1.612154,-1.87516 2.138156,-2.13816 0.159369,-0.0797 0.365503,0.0563 0.534538,0 1.937861,-0.64595 0.380431,-0.25362 1.603618,-1.06908 0.331507,-0.221 0.787352,-0.25281 1.069078,-0.53453 0.281726,-0.28173 0.252812,-0.78736 0.534541,-1.06908 0.125991,-0.12599 0.3655,0.0563 0.534537,0 1.937859,-0.64596 0.380429,-0.25362 1.603619,-1.06908 0.331507,-0.22101 0.787349,-0.25282 1.069078,-0.53454 0.281725,-0.28173 0.252812,-0.78735 0.534537,-1.06908 0.125992,-0.12599 0.375172,0.0797 0.534541,0 0.525999,-0.263 1.612154,-1.87515 2.138156,-2.13815 0.159369,-0.0797 0.408546,0.12599 0.534538,0 0.125991,-0.126 -0.125992,-0.40855 0,-0.53455 0.125991,-0.12599 0.375171,0.0797 0.53454,0 0.22538,-0.11268 0.309158,-0.42184 0.534538,-0.53453 0.318738,-0.15937 0.817098,0.25198 1.069078,0 0.12599,-0.12599 -0.12599,-0.40855 0,-0.53454 0.12599,-0.126 0.40855,0.12599 0.53454,0 0.12599,-0.126 -0.12599,-0.40855 0,-0.53454 0.12599,-0.12599 0.37517,0.0797 0.53454,0 1.77284,-1.77284 -0.50397,0.25198 1.06908,-0.53454 0.22538,-0.11269 0.30915,-0.42185 0.53454,-0.53454 0.15937,-0.0797 0.37516,0.0797 0.53453,0 0.22539,-0.11269 0.30916,-0.42185 0.53454,-0.53454 0.31874,-0.15937 0.8171,0.25199 1.06908,0 0.12599,-0.12599 -0.0797,-0.37517 0,-0.53454 1.11231,-2.22462 -0.0369,0.57144 1.06908,-0.53454 0.12599,-0.12599 -0.12599,-0.40854 0,-0.53454 0.12599,-0.12599 0.37517,0.0797 0.53454,0 0.22538,-0.11269 0.30916,-0.42184 0.53454,-0.53454 0.15937,-0.0797 0.37517,0.0797 0.53454,0 0.22538,-0.11268 0.30915,-0.42184 0.53454,-0.53453 0.15937,-0.0797 0.40854,0.12599 0.53453,0 0.25199,-0.25199 -0.25198,-0.8171 0,-1.06908 0.26728,-0.26727 1.33635,0.26727 1.60362,0 0.12599,-0.12599 -0.12599,-0.40855 0,-0.53454 0.25199,-0.25199 0.8171,0.25198 1.06908,0 0.25198,-0.25199 -0.25198,-0.8171 0,-1.06908 0.25198,-0.25198 0.81709,0.25198 1.06908,0 0.12599,-0.12599 -0.12599,-0.40855 0,-0.53454 0.12599,-0.12599 0.40854,0.12599 0.53454,0 0.12599,-0.12599 -0.0797,-0.37517 0,-0.53454 1.11231,-2.22462 -0.0369,0.57144 1.06907,-0.53454 0.126,-0.12599 -0.12599,-0.40854 0,-0.53454 0.126,-0.12599 0.40855,0.126 0.53454,0 0.126,-0.12599 -0.12599,-0.40854 0,-0.53453 0.25199,-0.25199 0.8171,0.25198 1.06908,0 0.12599,-0.126 -0.12599,-0.40855 0,-0.53454 0.12599,-0.126 0.37517,0.0797 0.53454,0 0.45077,-0.22538 0.61832,-0.8437 1.06908,-1.06908 0.15937,-0.0797 0.40855,0.12599 0.53454,0 0.12599,-0.12599 -0.12599,-0.40855 0,-0.53454 0.12599,-0.12599 0.37517,0.0797 0.53454,0 0.22538,-0.11269 0.30915,-0.42185 0.53454,-0.53454 0.31874,-0.15937 0.81709,0.25198 1.06907,0 1.10598,-1.10598 -1.69008,0.0432 0.53455,-1.06908 0.31873,-0.15937 0.81709,0.25199 1.06907,0 0.126,-0.12599 -0.12599,-0.40854 0,-0.53454 0.12863,-0.12862 2.00953,0.12863 2.13816,0 0.12599,-0.12599 -0.12599,-0.40854 0,-0.53454 0.25198,-0.25198 0.81709,0.25199 1.06908,0 0.12599,-0.12599 -0.12599,-0.40854 0,-0.53453 0.25198,-0.25199 0.75034,0.15937 1.06908,0 0.22538,-0.1127 0.30915,-0.42185 0.53453,-0.53454 0.15937,-0.0797 0.37517,0.0797 0.53454,0 0.45077,-0.22538 0.61832,-0.843699 1.06908,-1.069082 0.31874,-0.159369 0.75034,0.159369 1.06908,0 0.22538,-0.112691 0.30916,-0.421849 0.53454,-0.534538 0.42763,-0.213818 1.17598,0.213815 1.60362,0 0.22538,-0.112691 0.30915,-0.421849 0.53453,-0.53454 0.15937,-0.07968 0.36551,0.05635 0.53454,0 0.37798,-0.125992 0.69111,-0.408546 1.06908,-0.534538 0.16904,-0.05635 0.37517,0.07968 0.53454,0 0.22538,-0.112691 0.30916,-0.421849 0.53454,-0.53454 0.15937,-0.07968 0.37517,0.07968 0.53454,0 0.22538,-0.112692 0.30916,-0.421849 0.53454,-0.534538 0.15937,-0.07968 0.37517,0.07968 0.53454,0 0.22538,-0.112691 0.30915,-0.421849 0.53454,-0.53454 0.15937,-0.07968 0.37516,0.07968 0.53453,0 0.45077,-0.22538 0.61832,-0.843696 1.06908,-1.069078 0.15937,-0.07968 0.37517,0.07968 0.53454,0 0.45076,-0.22538 0.61832,-0.843696 1.06908,-1.069078 0.15937,-0.07968 0.37517,0.07968 0.53454,0 0.22538,-0.112692 0.30916,-0.421849 0.53454,-0.534538 0.15937,-0.07968 0.37517,0.07968 0.53454,0 0.22538,-0.112691 0.30915,-0.421849 0.53454,-0.53454 0.15937,-0.07968 0.37517,0.07968 0.53453,0 0.22539,-0.112692 0.29549,-0.454854 0.53454,-0.534538 0.33808,-0.112691 0.73101,0.112689 1.06908,0 0.23906,-0.07968 0.30916,-0.421849 0.53454,-0.53454 0.15937,-0.07968 0.37517,0.07968 0.53454,0 0.22538,-0.112692 0.29549,-0.454856 0.53454,-0.534538 2.43337,0 0.0306,0.251984 1.60362,-0.53454 0.31873,-0.15937 0.75034,0.159369 1.06907,0 2.44638,-1.223188 -2.26827,0.221551 1.60362,-1.069079 0.16904,-0.05634 0.35636,0 0.53454,0 0.17818,-0.178178 0.30916,-0.421849 0.53454,-0.534537 0.15937,-0.07968 0.37517,0.07968 0.53454,0 0.45076,-0.225383 0.61831,-0.843698 1.06908,-1.069081 0.15937,-0.07968 0.37517,0.07968 0.53454,0 2.44637,-1.223187 -2.26828,0.221554 1.60361,-1.069078 0.16904,-0.05634 0.37517,0.07968 0.53454,0 2.22463,-1.112311 -0.57144,0.0369 0.53454,-1.069078 0.12599,-0.125992 0.37517,0.07968 0.53454,0 0.22538,-0.112689 0.30916,-0.421846 0.53454,-0.534538 0.31874,-0.159369 0.75034,0.159369 1.06908,0 0.45076,-0.225382 0.61831,-0.843698 1.06907,-1.069078 0.15937,-0.07968 0.37518,0.07968 0.53455,0 0.45076,-0.225382 0.61831,-0.843698 1.06907,-1.069078 0.15937,-0.07968 0.40855,0.125992 0.53454,0 0.12599,-0.125992 -0.12599,-0.408548 0,-0.53454 0.10928,-0.109278 1.39168,0.105971 1.60362,0 0.64144,-0.320723 0.96217,-1.282893 1.60362,-1.603616 0.15936,-0.07968 0.40854,0.125992 0.53454,0 0.12599,-0.125992 -0.126,-0.408548 0,-0.53454 0.12599,-0.125992 0.37516,0.07968 0.53453,0 0.22539,-0.112689 0.30916,-0.421847 0.53454,-0.534538 0.15937,-0.07968 0.37517,0.07968 0.53454,0 0.22538,-0.112691 0.30916,-0.421849 0.53454,-0.53454 0.15937,-0.07969 0.37517,0.07968 0.53454,0 0.45076,-0.22538 0.61831,-0.843696 1.06908,-1.069078 0.15937,-0.07968 0.40855,0.125992 0.53454,0 0.12599,-0.125992 -0.12599,-0.408546 0,-0.534538 0.25198,-0.251984 0.81709,0.251984 1.06908,0 0.12599,-0.125992 -0.126,-0.408548 0,-0.53454 0.26726,-0.267269 1.33634,0.267271 1.60361,0 0.12599,-0.125992 -0.0797,-0.375169 0,-0.534538 0.11269,-0.225383 0.42185,-0.309158 0.53454,-0.53454 0.0797,-0.15937 -0.12599,-0.408546 0,-0.534538 0.25199,-0.251984 0.8171,0.251984 1.06908,0 0.12599,-0.125992 -0.12599,-0.408549 0,-0.534541 0.12599,-0.125991 0.40855,0.125992 0.53454,0 0.12599,-0.125991 -0.12599,-0.408545 0,-0.534537 0.25198,-0.251984 0.81709,0.251984 1.06908,0 0.12599,-0.125992 -0.0797,-0.375171 0,-0.534541 0.54054,-1.081095 1.24049,-0.171413 1.60361,-0.534537 0.126,-0.125992 -0.12599,-0.408549 0,-0.534541 0.25199,-0.251983 0.8171,0.251984 1.06908,0 0.12599,-0.125992 -0.12599,-0.408545 0,-0.534537 0.25199,-0.251984 0.8171,0.251984 1.06908,0 0.12599,-0.125992 -0.12599,-0.408549 0,-0.534541 0.25198,-0.251984 0.81709,0.251984 1.06908,0 0.25198,-0.251984 -0.25199,-0.817094 0,-1.069078 0.12599,-0.125992 0.40854,0.125992 0.53454,0 0.12599,-0.125992 -0.126,-0.408545 0,-0.534537 0.25198,-0.251984 0.81709,0.251983 1.06908,0 0.25198,-0.251984 -0.25199,-0.817095 0,-1.069078 0.12599,-0.125992 0.40854,0.125991 0.53453,0 0.126,-0.125992 -0.12599,-0.408549 0,-0.534541 0.26727,-0.267269 1.33635,0.267269 1.60362,0 0.25199,-0.251984 -0.25198,-0.817094 0,-1.069078 0.12599,-0.125992 0.40855,0.125992 0.53454,0 0.12599,-0.125992 -0.12599,-0.408546 0,-0.534538 0.12599,-0.125991 0.37517,0.07968 0.53454,0 0.45076,-0.225382 0.61832,-0.843698 1.06908,-1.069078 0.15937,-0.07968 0.40854,0.125992 0.53454,0 0.12599,-0.125992 -0.126,-0.408548 0,-0.53454 0.12599,-0.125992 0.40854,0.125992 0.53454,0 0.12599,-0.125992 -0.126,-0.408546 0,-0.534538 0.12599,-0.125992 0.40854,0.125992 0.53453,0 0.126,-0.125992 -0.12599,-0.408548 0,-0.53454 0.25199,-0.251984 0.8171,0.251984 1.06908,0 0.25199,-0.251984 -0.25198,-0.817094 0,-1.069078 0.25199,-0.251984 0.8171,0.251984 1.06908,0 0.12599,-0.125992 -0.12599,-0.408546 0,-0.534538 0.12599,-0.125992 0.40855,0.125992 0.53454,0 0.12599,-0.125992 -0.12599,-0.408548 0,-0.53454 0.25198,-0.251984 0.8171,0.251984 1.06908,0 0.25198,-0.251984 -0.25198,-0.817094 0,-1.069078 0.12599,-0.125992 0.53454,-0.178178 0.53454,0 0,0.178181 -0.35636,0 -0.53454,0"
       id="path843"
       inkscape:connector-curvature="0" />
  </g>
</svg>
